<?xml version="1.0" encoding="utf-8"?>
<!-- Generator: Adobe Illustrator 23.0.4, SVG Export Plug-In . SVG Version: 6.00 Build 0)  -->
<svg version="1.1" id="Layer_1" xmlns="http://www.w3.org/2000/svg" xmlns:xlink="http://www.w3.org/1999/xlink" x="0px" y="0px"
	 viewBox="0 0 165 35.1" style="enable-background:new 0 0 165 35.1;" xml:space="preserve">
<style type="text/css">
	.st0{fill-opacity:0;}
	.st1{fill:#7A6CF7;}
	.st2{fill:#9D9DF9;}
	.st3{fill:#6959E2;}
	.st4{fill:#775DF7;}
	.st5{fill:#FFCA32;}
	.st6{fill:#FFED97;}
	.st7{fill:#FFFFFF;}
	.st8{fill:#FFC932;}
</style>
<rect y="-4.9" class="st0" width="40" height="40"/>
<g>
	<path class="st1" d="M34.6,30.2c0,2.7-7.8,4.8-17.3,4.8S0,32.8,0,30.2c0-1.4,2-2.6,5.3-3.5c3.1-0.8,7.4-1.3,12-1.3s8.9,0.5,12,1.3
		C32.6,27.6,34.6,28.8,34.6,30.2z"/>
	<g>
		<path class="st2" d="M34.6,30.2c0,2.7-7.8,4.8-17.3,4.8S0,32.8,0,30.2c0-0.2,0-0.3,0.1-0.5C1,32.1,8.3,34,17.3,34
			s16.3-1.9,17.2-4.3C34.6,29.9,34.6,30,34.6,30.2z"/>
		<path class="st3" d="M29.8,29c0,0.1-0.2,0.3-0.6,0.7c-0.4,0.4-1.1,0.8-2,1.3c-2.4,1.2-5.8,1.8-9.9,1.8S9.9,32.1,7.5,31
			c-1.9-0.9-2.6-1.9-2.7-2c-0.1-0.2-0.2-0.3-0.2-0.5c0-0.1,0-0.2,0.1-0.3l0.6-1.4c3.1-0.8,7.4-1.3,12-1.3s8.9,0.5,12,1.3l0.6,1.4
			C30,28.4,30,28.7,29.8,29z"/>
	</g>
	<path class="st4" d="M27.1,23.8l1.8,4.4c0.1,0.2,0,0.4-0.1,0.5c-0.8,0.8-3.6,3.1-11.5,3.1S6.5,29.5,5.8,28.7
		c-0.1-0.1-0.2-0.4-0.1-0.5l1.8-4.4L7.8,23l9.4-22.7C17.3,0.1,17.4,0,17.6,0h5.3c0.2,0,0.3,0.1,0.4,0.2l4.9,9.1
		c0.2,0.4-0.3,0.8-0.6,0.5l-5.4-4l-0.9-0.6l0,0l-0.5,0.5L20,6.5l0,0L26.8,23L27.1,23.8z"/>
	<path class="st2" d="M23.6,0.9H18l-9.5,23l-0.4,0.8l-1.8,4.5c-0.2-0.2-0.4-0.3-0.5-0.5c-0.1-0.1-0.2-0.4-0.1-0.5l1.8-4.4L7.8,23
		l9.4-22.7C17.3,0.1,17.4,0,17.6,0h5.3c0.2,0,0.3,0.1,0.4,0.2L23.6,0.9z"/>
	<path class="st3" d="M29,28.2c0.1,0.2,0,0.4-0.1,0.5c-0.8,0.8-3.6,3.1-11.5,3.1S6.6,29.5,5.9,28.7c-0.1-0.1-0.2-0.4-0.1-0.5
		l1.8-4.4L7.8,23h0.1c1.5,0.8,4.4,1.7,9.4,1.7s7.9-0.9,9.4-1.7h0.1l0.4,0.8L29,28.2z"/>
	<path class="st5" d="M29,28.2c0.1,0.2,0,0.4-0.1,0.5c-0.8,0.8-3.6,3.1-11.5,3.1S6.6,29.5,5.9,28.7c-0.1-0.1-0.2-0.4-0.1-0.5
		l1.8-4.4c1.7,0.9,4.7,1.8,9.8,1.8s8.1-1,9.8-1.8L29,28.2z"/>
	<path class="st6" d="M27.5,24.7c-1.9,0.9-5,1.9-10.2,1.9s-8.3-1-10.2-1.9l0.4-0.9c1.7,0.9,4.7,1.8,9.8,1.8s8.1-1,9.8-1.8L27.5,24.7
		z"/>
	<g>
		<path class="st3" d="M20.8,5.6L20,6.5c0,0,0,0,0-0.1l-1-2.3c-0.1-0.3,0-0.6,0.3-0.7c0.3-0.1,0.6,0,0.7,0.3L20.8,5.6z"/>
		<path class="st3" d="M22.8,5.2l-0.7,0.7l-0.9-0.6L22,4.5c0.2-0.2,0.5-0.2,0.7,0C23,4.6,23,5,22.8,5.2z"/>
	</g>
</g>
<path class="st7" d="M20.2,15.9c-0.1-1-0.9-1.3-1.9-1.4v-1.3h-0.8v1.3c-0.2,0-0.4,0-0.6,0v-1.3h-0.8v1.3c-0.2,0-0.3,0-0.5,0l0,0
	h-1.1v0.9h0.6c0.3,0,0.4,0.2,0.5,0.4v1.5h0.1h-0.1v2.1c0,0.1-0.1,0.3-0.3,0.3h-0.6l-0.2,1h1c0.2,0,0.4,0,0.6,0V22h0.8v-1.3
	c0.2,0,0.4,0,0.6,0V22h0.8v-1.3c1.3-0.1,2.3-0.4,2.4-1.7c0.1-1-0.4-1.5-1.1-1.7C20,17.1,20.3,16.6,20.2,15.9z M19.1,18.8
	c0,1-1.7,0.9-2.2,0.8v-1.8C17.4,17.9,19.1,17.7,19.1,18.8z M18.7,16.3c0,0.9-1.4,0.8-1.9,0.8v-1.6C17.3,15.4,18.8,15.3,18.7,16.3z"
	/>
<g>
	<path class="st7" d="M52.8,24h-6.1V10h5.4c0.9,0,1.8,0.1,2.5,0.3s1.2,0.5,1.5,0.9c0.6,0.7,1,1.5,1,2.4c0,1.1-0.3,1.9-1,2.4
		c-0.3,0.2-0.4,0.3-0.5,0.3s-0.3,0.1-0.5,0.2c0.9,0.2,1.6,0.6,2.1,1.2S58,19,58,19.9c0,1-0.3,1.8-1,2.6C56.1,23.6,54.7,24,52.8,24z
		 M49.1,15.8h3c1.7,0,2.6-0.6,2.6-1.7c0-0.7-0.2-1.1-0.6-1.4c-0.4-0.3-1.1-0.4-1.9-0.4h-3L49.1,15.8L49.1,15.8z M49.1,21.8h3.7
		c0.9,0,1.5-0.1,2-0.4s0.7-0.8,0.7-1.6c0-1.2-1-1.9-3-1.9h-3.4V21.8z"/>
	<path class="st7" d="M65.8,12.2V24h-2.4V12.2h-4.2V10H70v2.2H65.8z"/>
	<path class="st7" d="M78.9,21.9c0.8,0,1.5-0.1,2.1-0.4s1.2-0.7,1.8-1.3l1.5,1.6c-1.5,1.6-3.3,2.5-5.4,2.5s-3.9-0.7-5.3-2
		S71.7,19,71.7,17c0-2.1,0.7-3.8,2.1-5.2s3.2-2.1,5.4-2.1s4,0.8,5.4,2.4l-1.5,1.6c-0.7-0.6-1.3-1.1-1.9-1.3
		c-0.6-0.3-1.3-0.4-2.1-0.4c-1.4,0-2.6,0.5-3.6,1.4s-1.4,2.1-1.4,3.5c0,1.4,0.5,2.6,1.4,3.6S77.6,21.9,78.9,21.9z"/>
	<path class="st7" d="M91.9,24h-2.6l-3.7-10.6H88l2.6,8l2.6-8h2.3l2.6,8l2.6-8h2.3L99.5,24H97l-2.5-7.3L91.9,24z"/>
	<path class="st7" d="M107.4,24h-2.2V13.4h2.2V24z"/>
	<path class="st7" d="M110.3,15.3v-1.9h8.3v2l-6,6.6h6.3v2h-9v-2.2l5.8-6.5C115.7,15.3,110.3,15.3,110.3,15.3z"/>
	<path class="st7" d="M130.1,24h-2v-1.4c-0.9,1.1-2.1,1.6-3.5,1.6c-1.1,0-2-0.3-2.8-0.9c-0.7-0.6-1.1-1.5-1.1-2.5s0.4-1.8,1.2-2.4
		c0.8-0.5,1.8-0.8,3.1-0.8h2.9v-0.4c0-1.4-0.8-2.1-2.4-2.1c-1,0-2,0.4-3.1,1.1l-1-1.4c1.3-1,2.8-1.5,4.4-1.5c1.3,0,2.3,0.3,3.1,0.9
		c0.8,0.6,1.2,1.6,1.2,3V24z M127.9,20v-0.9h-2.5c-1.6,0-2.4,0.5-2.4,1.5c0,0.5,0.2,0.9,0.6,1.2c0.4,0.3,1,0.4,1.7,0.4
		s1.3-0.2,1.9-0.6C127.6,21.3,127.9,20.7,127.9,20z"/>
	<path class="st7" d="M138.8,15.5c-1.1,0-1.9,0.4-2.5,1.1s-0.8,1.7-0.8,2.9V24h-2.2V13.4h2.2v2.1c0.4-0.7,0.8-1.2,1.5-1.6
		c0.6-0.4,1.3-0.6,2-0.7v2.3C138.9,15.5,138.9,15.5,138.8,15.5z"/>
	<path class="st7" d="M142,22.6c-1-1-1.5-2.3-1.5-4s0.5-3,1.5-4s2.2-1.5,3.7-1.5s2.6,0.6,3.4,1.8V9.2h2.2V24h-2.2v-1.6
		c-0.8,1.2-2,1.8-3.6,1.8C144.2,24.2,143,23.7,142,22.6z M142.7,18.7c0,1,0.3,1.9,1,2.5s1.4,1,2.3,1s1.6-0.3,2.2-1
		c0.6-0.6,0.9-1.5,0.9-2.5s-0.3-1.9-0.9-2.5c-0.6-0.7-1.4-1-2.3-1c-0.9,0-1.7,0.3-2.3,1C143,16.9,142.7,17.7,142.7,18.7z"/>
	<path class="st7" d="M162.2,20.8c0,1-0.4,1.8-1.1,2.4s-1.7,0.9-2.8,0.9c-0.8,0-1.6-0.1-2.4-0.4c-0.8-0.3-1.6-0.7-2.2-1.2l1.1-1.7
		c1.2,0.9,2.4,1.4,3.6,1.4c0.5,0,0.9-0.1,1.2-0.3c0.3-0.2,0.4-0.5,0.4-0.9c0-0.5-0.7-1-2.1-1.4c-0.1,0-0.2-0.1-0.2-0.1
		c-2.2-0.6-3.3-1.6-3.3-3c0-1,0.4-1.8,1.2-2.4c0.8-0.6,1.8-0.9,3-0.9s2.4,0.4,3.5,1.1l-0.8,1.7c-0.9-0.6-1.8-0.9-2.8-0.9
		c-0.5,0-1,0.1-1.3,0.3s-0.5,0.5-0.5,0.9c0,0.3,0.2,0.6,0.5,0.8c0.2,0.1,0.6,0.2,1,0.3c0.4,0.1,0.8,0.2,1.1,0.3
		c0.3,0.1,0.7,0.2,1,0.4c0.3,0.1,0.6,0.3,1,0.6C161.8,19.1,162.2,19.8,162.2,20.8z"/>
</g>
<path class="st8" d="M107.9,6.5l0.8-0.5c0.4-0.3,0.2-0.9-0.3-0.8l-1,0.2c-1,0.2-1.9-0.3-2.5-1.1l-0.5-0.8c-0.3-0.4-0.9-0.2-0.8,0.3
	l0.2,1c0.2,1-0.3,1.9-1.1,2.5l-0.8,0.5c-0.4,0.3-0.2,0.9,0.3,0.8l1-0.2c1-0.2,1.9,0.3,2.5,1.1l0.5,0.8c0.3,0.4,0.9,0.2,0.8-0.3
	l-0.2-1C106.6,8.1,107.1,7.1,107.9,6.5z"/>
</svg>
